<?xml version="1.0" encoding="utf-8"?>
<!-- Generator: Adobe Illustrator 22.1.0, SVG Export Plug-In . SVG Version: 6.00 Build 0)  -->
<svg version="1.1" id="Nave" xmlns="http://www.w3.org/2000/svg" xmlns:xlink="http://www.w3.org/1999/xlink" x="0px" y="0px"
	 viewBox="0 0 600 600" style="enable-background:new 0 0 600 600;" xml:space="preserve">
<style type="text/css">
	.st0{display:none;fill:#FFFFFF;stroke:#000000;stroke-miterlimit:10;}
	.st1{fill:#F1F0EF;}
	.st2{fill:#202138;}
	.st3{fill:#55608C;}
	.st4{fill:#A8E15E;}
</style>
<g id="Nave">
	<g>
		<g>
			<line class="st0" x1="600" y1="300" x2="0" y2="300"/>
			<g>
				<polygon class="st1" points="300,71.7 329,126 401,357 403.3,524 300,524 				"/>
				<polygon class="st1" points="497,39 560.7,319.3 516.2,556 535.5,323.3 				"/>
			</g>
			<g>
				<polygon class="st2" points="497,39 502,300 516.2,556 535.5,323.3 				"/>
				<polygon class="st2" points="418,275 401,357 300,524 300,363 				"/>
				<polygon class="st2" points="300,49.7 300,182 371,260.7 351.6,198.6 325.8,168 				"/>
			</g>
			<g>
				<polygon class="st3" points="401,357 502,300 535.5,323.3 402.8,489.3 				"/>
				<polygon class="st3" points="391.7,414 390.1,556 374.4,442 332.5,399.5 				"/>
				<polygon class="st4" points="359,524 344.2,556 300,556 300,524 				"/>
			</g>
			<g>
				<polygon class="st4" points="516.3,309.9 520.2,312.7 401.7,411.1 401.6,399.3 				"/>
				<polygon class="st4" points="497,39 516.3,309.9 520.2,312.7 				"/>
				<polygon class="st4" points="347.3,327.8 300,290 300,322.5 325.7,343.8 				"/>
			</g>
		</g>
	</g>
	<g>
		<g>
			<line class="st0" x1="0" y1="300" x2="600" y2="300"/>
			<g>
				<polygon class="st1" points="300,71.7 271,126 199,357 196.7,524 300,524 				"/>
				<polygon class="st1" points="103,39 39.3,319.3 83.8,556 64.5,323.3 				"/>
			</g>
			<g>
				<polygon class="st2" points="103,39 98,300 83.8,556 64.5,323.3 				"/>
				<polygon class="st2" points="182,275 199,357 300,524 300,363 				"/>
				<polygon class="st2" points="300,49.7 300,182 229,260.7 248.4,198.6 274.2,168 				"/>
			</g>
			<g>
				<polygon class="st3" points="199,357 98,300 64.5,323.3 197.2,489.3 				"/>
				<polygon class="st3" points="208.3,414 209.9,556 225.6,442 267.5,399.5 				"/>
				<polygon class="st4" points="241,524 255.8,556 300,556 300,524 				"/>
			</g>
			<g>
				<polygon class="st4" points="83.8,309.9 79.8,312.7 198.3,411.1 198.4,399.3 				"/>
				<polygon class="st4" points="103,39 83.8,309.9 79.8,312.7 				"/>
				<polygon class="st4" points="252.7,327.8 300,290 300,322.5 274.3,343.8 				"/>
			</g>
		</g>
	</g>
</g>
</svg>
