<?xml version="1.0" encoding="utf-8"?>
<!-- Generator: Adobe Illustrator 22.1.0, SVG Export Plug-In . SVG Version: 6.00 Build 0)  -->
<svg version="1.1" xmlns="http://www.w3.org/2000/svg" xmlns:xlink="http://www.w3.org/1999/xlink" x="0px" y="0px"
	 viewBox="0 0 600 600" style="enable-background:new 0 0 600 600;" xml:space="preserve">
<style type="text/css">
	.st0{display:none;}
	.st1{display:inline;fill:#FFFFFF;stroke:#000000;stroke-miterlimit:10;}
	.st2{display:none;fill:#FFFFFF;stroke:#000000;stroke-miterlimit:10;}
	.st3{fill:#6DA6B1;}
	.st4{fill:#999999;}
	.st5{fill:#346D7E;}
	.st6{fill:#C1272D;}
	.st7{fill:#CCCCCC;}
</style>
<g id="guide" class="st0">
	<line class="st1" x1="300" y1="0" x2="300" y2="600"/>
</g>
<g id="x">
	<g>
		<g>
			<line class="st2" x1="600" y1="300" x2="0" y2="300"/>
			<g>
				<polyline class="st3" points="300,486 300,29.6 367.5,236 492.5,329 503.5,292 513,310.5 516,412 505,425.5 486.5,406 
					487,396.5 381.5,354.5 361.5,387 360.5,456 328.7,439.6 				"/>
				<path class="st4" d="M347,490.5"/>
			</g>
			<g>
				<polygon class="st5" points="503.5,292 505,425.5 486.5,406 492.5,329 				"/>
				<polygon class="st5" points="367.5,236 399.5,259.8 402,362.7 381.5,354.5 				"/>
				<polygon class="st5" points="361.5,387 360.5,456 328.7,439.6 				"/>
			</g>
			<g>
				<polyline class="st6" points="373.8,289.3 381.5,354.5 300,486 373.8,289.3 				"/>
				<polygon class="st6" points="368.4,243.8 492.1,334.4 491.4,343 369.5,253.9 				"/>
				<polyline class="st6" points="300,185 342,194.4 354.8,213.2 300,191 300,185 				"/>
			</g>
			<g>
				<polygon class="st7" points="434.2,211.7 413,211.7 413,259.8 419,259.8 419.2,274.5 427.9,280.9 427.8,259.8 434.2,259.8 				
					"/>
				<polygon class="st7" points="300,29.6 342,158 317.8,152.8 299.8,148.7 				"/>
				<g>
					<polygon class="st5" points="300,222.4 328.7,315 300,294.8 271.4,315 					"/>
				</g>
			</g>
		</g>
	</g>
	<g>
		<g>
			<line class="st2" x1="0" y1="300" x2="600" y2="300"/>
			<g>
				<polyline class="st3" points="300,486 300,29.6 232.5,236 107.5,329 96.5,292 87,310.5 84,412 95,425.5 113.5,406 113,396.5 
					218.5,354.5 238.5,387 239.5,456 271.3,439.6 				"/>
				<path class="st4" d="M253,490.5"/>
			</g>
			<g>
				<polygon class="st5" points="96.5,292 95,425.5 113.5,406 107.5,329 				"/>
				<polygon class="st5" points="232.5,236 200.5,259.8 198,362.7 218.5,354.5 				"/>
				<polygon class="st5" points="238.5,387 239.5,456 271.3,439.6 				"/>
			</g>
			<g>
				<polyline class="st6" points="226.2,289.3 218.5,354.5 300,486 226.2,289.3 				"/>
				<polygon class="st6" points="231.6,243.8 107.9,334.4 108.6,343 230.5,253.9 				"/>
				<polyline class="st6" points="300,185 258,194.4 245.2,213.2 300,191 300,185 				"/>
			</g>
			<g>
				<polygon class="st7" points="165.8,211.7 187,211.7 187,259.8 181,259.8 180.8,274.5 172.1,280.9 172.2,259.8 165.8,259.8 				
					"/>
				<polygon class="st7" points="300,29.6 258,158 282.2,152.8 300.2,148.7 				"/>
				<g>
					<polygon class="st5" points="300,222.4 271.3,315 300,294.8 328.6,315 					"/>
				</g>
			</g>
		</g>
	</g>
</g>
</svg>
