<svg width="399" height="476" viewBox="0 0 399 476" fill="none" xmlns="http://www.w3.org/2000/svg">
<path d="M140.3 0L94.3 16L9 164.7L43 228L0.299988 280L144.3 476L187 440.7H213L254.3 476L399 284.7L359.7 228L392.3 166.7L307 18.7L266.3 0L281.7 217.3L266.3 212L259 162.7L199.7 132L143 158.7L136.3 208.7L123.7 213.3L140.3 0Z" fill="#736F6E"/>
<path d="M143 158.7L144.3 476L104.4 421.7L143 158.7Z" fill="#575653"/>
<path d="M259 162.7L254.3 476L299.4 416.3L259 162.7Z" fill="#575653"/>
<path d="M140.3 0L118.8 7.5L63 365.4L104.4 421.7L123.7 213.3L140.3 0Z" fill="#AEABA2"/>
<path d="M266.3 0L299.4 416.3L344.1 357.3L285.4 8.7L266.3 0Z" fill="#AEABA2"/>
<path d="M101.7 61.5L78.5 64.5L25 163.5L80 157.5L101.7 61.5Z" fill="#AEABA2"/>
<path d="M308 58L326.5 153L381 163.5L326.5 61.5L308 58Z" fill="#AEABA2"/>
<path d="M199.7 220.5H204L213 440.7H187L199.7 220.5Z" fill="#F2F2F2"/>
<path d="M294.4 206.8L299.4 260L315 252.7L309.7 210.7L294.4 206.8Z" fill="#F2F2F2"/>
<path d="M110.3 206.8L104.4 260L87.7 252.7L95 211.3L110.3 206.8Z" fill="#F2F2F2"/>
<path d="M201.3 174L179.8 214.5L199.7 220.5H204L221.3 215L201.3 174Z" fill="#F7931E"/>
<path d="M266.3 0L281.7 217.3L299.4 416.3L305.2 408.7L266.3 0Z" fill="#F7931E"/>
<path d="M140.3 0L123.7 213.3L104.4 421.7L99 414.3L140.3 0Z" fill="#F7931E"/>
</svg>
