<?xml version="1.0" encoding="utf-8"?>
<!-- Generator: Adobe Illustrator 22.1.0, SVG Export Plug-In . SVG Version: 6.00 Build 0)  -->
<svg version="1.1" id="Nave4" xmlns="http://www.w3.org/2000/svg" xmlns:xlink="http://www.w3.org/1999/xlink" x="0px" y="0px"
	 viewBox="0 0 600 600" style="enable-background:new 0 0 600 600;" xml:space="preserve">
<style type="text/css">
	.st0{display:none;fill:#FFFFFF;stroke:#000000;stroke-miterlimit:10;}
	.st1{fill:#9B87EC;}
	.st2{fill:#8342AC;}
	.st3{fill:#EA6EEC;}
	.st4{fill:#80EFE6;}
</style>
<g id="Nave4">
	<g>
		<g>
			<line class="st0" x1="600" y1="300" x2="0" y2="300"/>
			<g>
				<polygon class="st1" points="300,31.2 402.4,272.3 402.4,418.8 351.2,513.4 300,371.5 				"/>
				<polygon class="st1" points="537,378.5 402.4,272.3 436.5,419.5 537,483.5 				"/>
				<polygon class="st2" points="402.4,418.8 436.5,419.5 402.4,272.3 				"/>
				<polygon class="st2" points="300,31.2 380,287 380,411 				"/>
				<g>
					<polygon class="st2" points="300,371.5 300,330 325.1,379.2 351.2,513.4 					"/>
				</g>
			</g>
			<g>
				<polygon class="st3" points="407.9,296 525,391.7 524,475.2 509.7,390.7 				"/>
				<polyline class="st3" points="300,250.5 351.2,513.4 366.9,484.3 300,330 				"/>
				<polygon class="st3" points="448.5,308.7 448.5,206 402.4,110 409.1,178.9 436.5,210.2 436.5,299.2 				"/>
			</g>
			<g>
				<polygon class="st4" points="300,206.5 344.4,242.1 354.8,291.6 300,250.5 				"/>
				<polygon class="st4" points="402.4,272.3 537,378.5 537,483.5 524,475.2 525,391.7 407.9,296 				"/>
			</g>
		</g>
	</g>
	<g>
		<g>
			<line class="st0" x1="0" y1="300" x2="600" y2="300"/>
			<g>
				<polygon class="st1" points="300,31.2 197.6,272.3 197.6,418.8 248.8,513.4 300,371.5 				"/>
				<polygon class="st1" points="63,378.5 197.6,272.3 163.5,419.5 63,483.5 				"/>
				<polygon class="st2" points="197.6,418.8 163.5,419.5 197.6,272.3 				"/>
				<polygon class="st2" points="300,31.2 220,287 220,411 				"/>
				<g>
					<polygon class="st2" points="300,371.5 300,330 274.9,379.2 248.8,513.4 					"/>
				</g>
			</g>
			<g>
				<polygon class="st3" points="192.1,296 75,391.7 76,475.2 90.3,390.7 				"/>
				<polyline class="st3" points="300,250.5 248.8,513.4 233.1,484.3 300,330 				"/>
				<polygon class="st3" points="151.5,308.7 151.5,206 197.6,110 190.9,178.9 163.5,210.2 163.5,299.2 				"/>
			</g>
			<g>
				<polygon class="st4" points="300,206.5 255.6,242.1 245.2,291.6 300,250.5 				"/>
				<polygon class="st4" points="197.6,272.3 63,378.5 63,483.5 76,475.2 75,391.7 192.1,296 				"/>
			</g>
		</g>
	</g>
</g>
</svg>
